<svg width="790" height="800" viewBox="0 0 790 800" fill="none" xmlns="http://www.w3.org/2000/svg">
<path d="M760.202 139.311C740.003 142.652 719.439 144.346 699.079 144.346C592.633 144.349 490.937 99.622 412.724 18.4077L394.998 0L377.273 18.4061C299.068 99.6154 197.37 144.341 90.9177 144.344C70.5664 144.344 50.0019 142.652 29.795 139.309L0 134.382L1.18642 164.574C5.84019 283.141 28.7645 390.108 69.3193 482.503C102.011 556.984 146.141 622.172 200.485 676.255C293.62 768.946 384.145 796.756 387.954 797.894L395 800L402.046 797.894C405.855 796.756 496.379 768.946 589.515 676.255C643.857 622.172 687.988 556.984 720.681 482.503C761.236 390.108 784.158 283.141 788.814 164.574L790 134.382L760.202 139.311Z" fill="#1846EC"/>
<path d="M556.734 639.397C486.458 710.06 416.869 740.009 394.952 748.236C373.288 740.177 305.236 711.037 235.201 641.336C159.448 565.944 67.785 427.5 51.9267 191.789C64.9199 192.992 77.9573 193.6 90.9193 193.6C151.079 193.598 210.045 180.923 266.179 155.929C313.383 134.911 356.619 106.084 394.998 70.0797C433.381 106.091 476.613 134.914 523.816 155.932C579.95 180.928 638.916 193.6 699.079 193.598C712.041 193.598 725.075 192.99 738.065 191.787C725.458 378.182 663.055 532.492 556.734 639.397Z" fill="url(#paint0_linear_11_28)"/>
<defs>
<linearGradient id="paint0_linear_11_28" x1="394.996" y1="70.0797" x2="394.996" y2="748.236" gradientUnits="userSpaceOnUse">
<stop stop-color="#00D1FF"/>
<stop offset="1" stop-color="#3B1A82"/>
</linearGradient>
</defs>
</svg>
